<svg fill="#000" height="800" width="800" version="1.1" id="Capa_1" xmlns="http://www.w3.org/2000/svg" viewBox="0 0 480.002 480.002" xml:space="preserve"><path d="M469.877 170.658c.066-.297.138-.584.199-.89l-.497-.099c-11.323-37.129-31.648-71.148-59.873-99.374C364.376 24.965 304.106 0 240 0S115.624 24.965 70.294 70.296C24.964 115.626.001 175.896.001 240.002s24.964 124.376 70.293 169.706S175.893 480.002 240 480.002c64.107 0 124.376-24.964 169.707-70.294 45.331-45.33 70.295-105.6 70.295-169.706-.001-23.836-3.459-47.14-10.125-69.344zM345.198 46.682c16.934 9.246 32.733 20.785 47 34.471-1.331 3.705-3.593 7.78-7.105 7.78l-.166-.003c-3.015-.109-6.51-1.256-10.21-2.469-5.606-1.838-11.961-3.924-19.181-3.341-7.066.567-13.123 3.55-18.466 6.181-5.009 2.466-9.334 4.599-12.433 3.824-2.947-.734-6.03-4.443-9.193-8.507-1.406-1.806-2.276-3.101-2.596-3.861.377-.629 1.144-1.622 1.552-2.15 3.982-5.154 10.708-11.751 17.213-18.131 4.693-4.604 9.477-9.307 13.585-13.794zm-70.33-23.935c-1.166 7.447-4.387 17.263-7.303 20.87-3.223 3.985-8.92 5.825-12.7 4.104-3.813-1.738-6.832-7.169-8.074-14.528-.814-4.824-2.419-9.183-4.113-13.159a222.511 222.511 0 0 1 32.19 2.713zM84.437 84.438c26.093-26.093 57.588-44.82 91.961-55.146 4.151 13.648 9.206 26.434 14.136 38.517 3.774 9.253 8.053 19.739 7.087 29.229-.37 3.634-1.293 8.281-3.594 9.786-2.001 1.31-6.018 1.645-10.269 2-7.008.585-15.729 1.313-23.673 6.891-1.697 1.191-3.273 2.423-4.796 3.612-3.273 2.557-6.365 4.971-9.248 5.779-2.85.8-6.522.381-10.776-.104-2.443-.278-4.97-.565-7.644-.653-8.488-.312-27.836 3.766-36.26 14.768-4.163 5.437-5.362 12.009-3.376 18.506 1.471 4.815 4.623 8.174 7.514 10.826 13.503 12.38 32.035 21.148 50.842 24.058 2.69.416 5.294.734 7.813 1.043 13.791 1.688 20.652 2.915 25.868 12.314 1.299 2.341 2.345 5.112 3.453 8.046 1.275 3.379 2.594 6.873 4.515 10.395 5.704 10.463 15.32 16.592 25.086 16.048 7.29-.42 12.674-4.225 17-7.281 1.996-1.41 3.881-2.742 5.494-3.414 4.335-1.81 10.953-.203 17.695 4.291 4.624 3.083 10.606 8.183 12.845 14.97 1.685 5.106.519 11.017-2.75 13.78L233.97 287.8c-9.464 8.084-19.59 17.9-19.931 32.135-.108 4.502.821 8.825 1.64 12.64.574 2.669 1.533 7.137 1.018 8.304-.539.479-3.059 1.097-4.564 1.466-2.652.649-5.657 1.385-8.711 2.928-14.806 7.476-16.189 25.188-17.105 36.91-.664 8.503-3.818 15.659-7.033 15.953-2.615.251-6.308-4.27-7.591-9.281-.796-3.109-1.17-6.575-1.566-10.245-.57-5.287-1.217-11.28-3.34-17.165-2.736-7.583-7.499-13.834-11.701-19.349-4.127-5.418-8.026-10.535-9.285-15.858-.943-3.987-.563-8.778-.159-13.852.514-6.46 1.096-13.782-.953-21.235-2.912-10.594-10.128-18.164-16.495-24.845-4.181-4.386-8.13-8.529-10.476-13.005-2.828-5.396-2.477-11.052-2.07-17.601.385-6.207.822-13.243-1.649-20.482-2.468-7.229-8.302-11.405-12.623-14.499a247.241 247.241 0 0 1-35.267-30.698c-5.738-6.041-11.347-12.639-13.52-19.942-.568-1.909-.961-3.351-1.27-4.479-1.373-5.028-2.182-6.824-5.067-10.017 10.043-18.574 22.836-35.796 38.185-51.145zM240 460.002c-58.764 0-114.011-22.884-155.563-64.437-41.552-41.552-64.436-96.799-64.436-155.563 0-27.796 5.127-54.803 14.921-79.949 3.779 9.331 10.196 16.907 16.686 23.74a267.465 267.465 0 0 0 38.187 33.229c1.943 1.392 4.881 3.495 5.277 4.656 1.191 3.49.924 7.797.615 12.782-.492 7.922-1.103 17.779 4.317 28.122 3.648 6.961 8.765 12.329 13.713 17.521 5.425 5.691 10.11 10.607 11.687 16.347 1.118 4.067.721 9.063.301 14.35-.484 6.092-1.033 12.996.633 20.04 2.237 9.46 7.87 16.853 12.839 23.375 3.653 4.795 7.103 9.323 8.796 14.016 1.309 3.628 1.775 7.949 2.268 12.523.454 4.209.924 8.561 2.076 13.06 3.176 12.408 13.243 24.335 26.682 24.334.691 0 1.393-.031 2.102-.096 13.963-1.274 23.601-14.423 25.154-34.313.6-7.686 1.422-18.212 6.18-20.613 1.016-.514 2.686-.923 4.454-1.355 4.083-1 9.673-2.369 14.111-6.914 8.131-8.327 5.878-18.82 4.232-26.48-.643-2.996-1.251-5.825-1.2-7.961.144-5.997 6.748-12.13 12.926-17.407l29.353-25.072c9.555-8.08 13.088-22.26 8.791-35.285-3.186-9.657-10.359-18.421-20.746-25.346-12.686-8.454-25.641-10.624-36.479-6.112-3.657 1.523-6.679 3.659-9.346 5.543-2.475 1.749-5.034 3.558-6.609 3.648-1.571.101-4.382-1.999-6.375-5.654-1.258-2.308-2.28-5.017-3.363-7.885-1.312-3.476-2.669-7.07-4.676-10.688-10.392-18.726-26.614-20.71-40.926-22.462-2.364-.289-4.808-.588-7.185-.956-15.001-2.319-29.72-9.257-40.382-19.032-1.345-1.233-1.79-1.795-1.935-2.037a1.632 1.632 0 0 1-.028-.13c1.321-3.073 13.3-7.396 19.91-7.204 1.869.062 3.894.293 6.038.537 5.538.631 11.814 1.347 18.437-.51 6.686-1.874 11.72-5.806 16.162-9.274 1.387-1.084 2.698-2.107 3.979-3.007 3.512-2.466 8.3-2.865 13.844-3.328 10.967-.915 29.323-2.447 32.097-29.691 1.471-14.451-4.039-27.957-8.466-38.809-4.624-11.335-9.365-23.287-13.236-35.832a220.856 220.856 0 0 1 25.336-3.614c.479 1.097.961 2.181 1.441 3.246 1.952 4.334 3.796 8.427 4.479 12.467 2.418 14.329 9.344 24.771 19.5 29.399 3.636 1.657 7.559 2.451 11.516 2.451 9.261 0 18.703-4.353 25.031-12.181 5.092-6.301 9.533-18.546 11.323-29.432a217.353 217.353 0 0 1 31.882 10.773c-2.766 2.83-5.762 5.77-8.715 8.665-6.988 6.854-14.213 13.94-19.035 20.183-1.909 2.471-4.793 6.204-5.609 11.369-1.385 8.771 4.074 15.784 6.697 19.154 4.079 5.241 10.244 13.161 20.136 15.629 2.136.532 4.211.764 6.222.763 7.597 0 14.283-3.292 19.885-6.051 4.1-2.019 7.973-3.926 11.231-4.188 3.211-.262 6.983.979 11.35 2.41 4.63 1.518 9.878 3.238 15.716 3.45 9.346.345 17.2-4.112 22.596-12.387 18.809 21.799 32.941 46.721 41.897 73.527-1.472 1.064-4.468 1.204-11.5 1.292-3.055.038-6.517.081-10.208.365-10.281.789-18.232-2.155-27.437-5.566-6.18-2.29-12.57-4.658-20.21-6.176-19.248-3.831-39.138 6.926-50.672 27.396-2.097 3.722-20.105 36.889-6.781 55.241 4.978 6.855 12.025 11.081 17.688 14.477 8.032 4.814 16.338 9.792 25.537 13.503 1.969.795 3.958 1.529 5.881 2.239 6.998 2.583 13.607 5.023 16.847 9.457 2.711 3.711 3.609 9.584 2.747 17.955-.655 6.353-3.022 12.81-5.529 19.645-5.621 15.33-12.617 34.409 3.783 53.149 4.677 5.344 10.292 9.414 16.503 12.088a224.93 224.93 0 0 1-9.78 10.444c-41.554 41.553-96.801 64.437-155.565 64.437zm178.692-91.606c-5.705-1.022-10.759-3.917-14.8-8.534-8.208-9.379-5.664-17.797-.056-33.092 2.82-7.688 5.735-15.64 6.646-24.479 1.393-13.516-.73-23.919-6.492-31.805-6.8-9.308-17.038-13.087-26.07-16.421-1.868-.689-3.632-1.341-5.325-2.023-7.745-3.125-15.027-7.489-22.736-12.109-4.527-2.715-9.209-5.521-11.788-9.073-3.17-4.366.728-20.731 8.021-33.673 5.479-9.721 16.454-20.158 29.35-17.598 6.08 1.208 11.461 3.202 17.159 5.313 10.455 3.874 21.27 7.889 35.921 6.754 3.05-.234 6.037-.272 8.925-.309 5.195-.065 11.221-.144 16.727-1.937a221.676 221.676 0 0 1 5.827 50.592c0 46.731-14.486 91.229-41.309 128.394z"/></svg>